<svg width="24" height="24" viewBox="0 0 24 24" fill="none" xmlns="http://www.w3.org/2000/svg">
<path d="M18.8943 23.6052C17.9044 23.6052 16.514 23.2473 14.4319 22.0843C11.9 20.6647 9.94165 19.3541 7.42345 16.843C4.99552 14.4171 3.81401 12.8464 2.1604 9.83794C0.292288 6.44111 0.610739 4.66056 0.966714 3.89957C1.39064 2.99003 2.01638 2.44603 2.82519 1.90609C3.28458 1.60516 3.77074 1.34719 4.27748 1.13546C4.32819 1.11366 4.37535 1.09288 4.41744 1.07412C4.66845 0.961058 5.04876 0.790203 5.5305 0.972719C5.85199 1.09338 6.139 1.34029 6.58828 1.7839C7.50966 2.69243 8.76875 4.71582 9.23324 5.70952C9.5451 6.37925 9.75149 6.82135 9.752 7.31718C9.752 7.89769 9.45991 8.34536 9.10546 8.82852C9.03903 8.91927 8.97311 9.00597 8.90922 9.09013C8.52332 9.59712 8.43864 9.74364 8.49442 10.0052C8.6075 10.531 9.45079 12.0961 10.8367 13.4786C12.2225 14.8612 13.7428 15.6511 14.2706 15.7636C14.5435 15.8219 14.6931 15.7337 15.2164 15.3342C15.2914 15.2769 15.3685 15.2176 15.4491 15.1583C15.9897 14.7562 16.4166 14.4718 16.9836 14.4718H16.9866C17.48 14.4718 17.9024 14.6858 18.6022 15.0386C19.5149 15.499 21.5996 16.7416 22.5139 17.6638C22.9586 18.112 23.2065 18.3979 23.3277 18.7189C23.5103 19.202 23.3384 19.5808 23.2263 19.8342C23.2075 19.8763 23.1868 19.9225 23.165 19.9737C22.9515 20.4794 22.692 20.9645 22.3896 21.4226C21.8506 22.2288 21.3044 22.8529 20.3927 23.2772C19.9245 23.4986 19.4121 23.6108 18.8943 23.6052Z" fill="white"/>
</svg>
