<svg width="31" height="31" viewBox="0 0 31 31" fill="none" xmlns="http://www.w3.org/2000/svg">
<path d="M20.6314 22.6836C20.5741 22.9764 20.5115 23.2863 20.2959 23.4926V23.4926C20.1875 23.5963 20.0581 23.6757 19.9165 23.7254C19.7749 23.7751 19.6242 23.7939 19.4748 23.7806C19.4612 23.7794 19.4476 23.778 19.4341 23.7762C19.1649 23.7417 18.9421 23.5648 18.7278 23.3983L17.7917 22.6709C16.1796 21.4182 13.898 21.5148 12.3974 22.8992V22.8992C12.337 22.9438 12.2664 22.9724 12.1921 22.9826V22.9826C12.0615 23.0004 11.9822 22.8658 11.9968 22.7348L12.4694 18.507C12.4699 18.5026 12.475 18.5004 12.4785 18.5032V18.5032C12.482 18.5059 12.4871 18.5038 12.4876 18.4994L12.4949 18.4366C12.496 18.4268 12.4955 18.4225 12.5028 18.4158C12.7409 18.199 19.7928 11.7785 20.0848 11.5004V11.5004C20.2757 11.3214 20.214 10.9528 19.9697 11.0468C19.8717 11.0845 19.7823 11.1359 19.7551 11.1521C19.7493 11.1556 19.7439 11.159 19.7382 11.1626L13.6016 15.1105C11.3807 16.5394 8.62893 16.876 6.12908 16.0246V16.0246C6.08498 16.0096 6.04115 15.9945 5.99869 15.9753C5.83898 15.9032 5.43341 15.6834 5.3868 15.2931V15.2931C5.29508 14.5683 6.42266 14.4119 7.1016 14.1422L21.8055 8.3008C21.9877 8.22843 22.0009 8.21774 22.1849 8.15011V8.15011C23.0535 7.83084 23.3042 9.03386 23.1264 9.94201L20.6314 22.6836Z" fill="white"/>
</svg>
