<svg width="20" height="16" viewBox="0 0 20 16" fill="none" xmlns="http://www.w3.org/2000/svg">
<path d="M19.4085 3.47784C19.4085 1.74402 18.1498 0.349258 16.5944 0.349258C14.4876 0.249467 12.339 0.210938 10.1432 0.210938H9.45871C7.26827 0.210938 5.11585 0.249467 3.00907 0.349643C1.45751 0.349643 0.198761 1.75211 0.198761 3.48593C0.103689 4.85719 0.0633792 6.22884 0.0656609 7.60048C0.0618581 8.97213 0.104957 10.3451 0.194958 11.7193C0.194958 13.4531 1.4537 14.8594 3.00527 14.8594C5.21853 14.9634 7.48883 15.0097 9.79716 15.0058C12.1093 15.0135 14.3733 14.9647 16.5891 14.8594C18.1444 14.8594 19.4032 13.4531 19.4032 11.7193C19.4944 10.3438 19.5363 8.97213 19.5325 7.59663C19.5411 6.22498 19.4998 4.85206 19.4085 3.47784ZM11.0588 9.23635C9.73644 10.1446 7.93757 9.19788 7.93757 7.59361C7.93757 5.98978 9.73559 5.04292 11.058 5.95034C12.2115 6.74182 12.2119 8.44432 11.0588 9.23635Z" fill="white"/>
</svg>
