<svg width="13" height="13" viewBox="0 0 13 13" fill="none" xmlns="http://www.w3.org/2000/svg">
<path d="M10.3516 2.02466H2.14844C1.78596 2.02505 1.43843 2.16921 1.18212 2.42553C0.925805 2.68184 0.781638 3.02936 0.78125 3.39185V9.25122C0.781638 9.6137 0.925805 9.96123 1.18212 10.2175C1.43843 10.4739 1.78596 10.618 2.14844 10.6184H10.3516C10.714 10.618 11.0616 10.4739 11.3179 10.2175C11.5742 9.96123 11.7184 9.6137 11.7188 9.25122V3.39185C11.7184 3.02936 11.5742 2.68184 11.3179 2.42553C11.0616 2.16921 10.714 2.02505 10.3516 2.02466ZM10.0054 4.28613L6.48975 7.02051C6.42119 7.0738 6.33683 7.10273 6.25 7.10273C6.16317 7.10273 6.07881 7.0738 6.01025 7.02051L2.49463 4.28613C2.45332 4.25494 2.41863 4.21585 2.39256 4.17113C2.3665 4.12641 2.34958 4.07696 2.34279 4.02565C2.336 3.97434 2.33947 3.92219 2.35301 3.87223C2.36655 3.82227 2.38988 3.7755 2.42166 3.73464C2.45343 3.69378 2.493 3.65964 2.53808 3.6342C2.58316 3.60877 2.63285 3.59254 2.68425 3.58648C2.73565 3.58041 2.78775 3.58462 2.83751 3.59886C2.88727 3.6131 2.93371 3.63709 2.97412 3.66943L6.25 6.21728L9.52588 3.66943C9.60779 3.60757 9.71076 3.58044 9.81253 3.59391C9.91429 3.60737 10.0067 3.66035 10.0697 3.74139C10.1327 3.82242 10.1612 3.925 10.1492 4.02694C10.1372 4.12888 10.0855 4.22199 10.0054 4.28613Z" fill="#323241"/>
</svg>
