<svg width="13" height="14" viewBox="0 0 13 14" fill="none" xmlns="http://www.w3.org/2000/svg">
<path d="M10.4448 13.3497C9.90001 13.3497 9.13478 13.1528 7.9889 12.5127C6.59548 11.7314 5.51769 11.0102 4.13181 9.62816C2.7956 8.29304 2.14535 7.42864 1.23529 5.77292C0.207176 3.90348 0.382435 2.92356 0.578345 2.50475C0.811652 2.00418 1.15603 1.70479 1.60115 1.40764C1.85398 1.24202 2.12154 1.10005 2.40043 0.983525C2.42833 0.971527 2.45429 0.960087 2.47745 0.949763C2.61559 0.887542 2.8249 0.793511 3.09002 0.893959C3.26695 0.960366 3.42491 1.09625 3.67217 1.34039C4.17925 1.8404 4.87219 2.95397 5.12782 3.50085C5.29946 3.86944 5.41304 4.11275 5.41332 4.38563C5.41332 4.70511 5.25257 4.95149 5.0575 5.21739C5.02094 5.26734 4.98466 5.31505 4.9495 5.36137C4.73712 5.64039 4.69051 5.72103 4.72121 5.865C4.78345 6.15435 5.24755 7.01569 6.01026 7.77658C6.77297 8.53747 7.60964 8.97218 7.90015 9.03412C8.0503 9.06621 8.13262 9.01766 8.42063 8.79779C8.46193 8.76626 8.50435 8.73362 8.54872 8.70097C8.84622 8.47971 9.0812 8.32318 9.39321 8.32318H9.39488C9.66642 8.32318 9.89889 8.44093 10.284 8.63512C10.7863 8.88848 11.9336 9.57236 12.4368 10.0799C12.6815 10.3266 12.818 10.4839 12.8847 10.6605C12.9852 10.9264 12.8906 11.1349 12.8289 11.2744C12.8186 11.2975 12.8071 11.3229 12.7951 11.3511C12.6777 11.6295 12.5348 11.8964 12.3684 12.1486C12.0718 12.5922 11.7712 12.9357 11.2694 13.1692C11.0118 13.2911 10.7298 13.3528 10.4448 13.3497Z" fill="#323241"/>
</svg>
