<svg width="23" height="23" viewBox="0 0 23 23" fill="none" xmlns="http://www.w3.org/2000/svg">
<path d="M15.1564 17.4253C15.1134 17.5327 15.0479 17.6296 14.9644 17.7095C14.8808 17.7895 14.7811 17.8506 14.672 17.8889C14.5629 17.9272 14.4468 17.9417 14.3317 17.9314C14.2165 17.9212 14.1048 17.8865 14.0041 17.8296L10.8823 15.4038L8.8786 17.2523C8.83211 17.2866 8.77772 17.3088 8.72045 17.3166C8.66318 17.3244 8.60485 17.3177 8.55085 17.2971L8.93495 13.8603L8.94725 13.8701L8.9551 13.8022C8.9551 13.8022 14.5729 8.68762 14.8017 8.4697C15.0334 8.25235 14.9569 8.2052 14.9569 8.2052C14.9701 7.94009 14.5412 8.2052 14.5412 8.2052L7.0978 12.9938L3.99799 11.9381C3.99799 11.9381 3.52189 11.7674 3.47704 11.3919C3.42989 11.0193 4.0135 10.8169 4.0135 10.8169L16.3381 5.92076C16.3381 5.92076 17.3512 5.46936 17.3512 6.2169L15.1564 17.4253Z" fill="#323241"/>
</svg>
