<svg width="161" height="137" viewBox="0 0 161 137" fill="none" xmlns="http://www.w3.org/2000/svg">
<g clip-path="url(#clip0_388_1547)">
<path fillRule="evenodd" clip-rule="evenodd" d="M118.107 0C129.199 0 138.297 9.01772 138.297 20.2032C138.297 29.3943 132.145 37.1981 123.653 39.6259V42.6608C133.791 36.5911 144.796 32.9494 156.581 31.562L161 31.0418V72.7487H157.014C152.075 72.7487 147.222 74.6563 143.496 77.9513C140.377 80.726 138.037 84.7146 138.037 89.05V109.166C138.037 122.346 122.18 137.087 109.182 137.087H98.5237H94.5377H80.9333H67.3288H63.3428H51.8181C38.9069 137.087 22.9629 122.346 22.9629 109.166V89.05C22.9629 84.8013 20.6233 80.8127 17.5038 77.9513C13.7777 74.6563 8.92519 72.7487 3.98601 72.7487H0V31.0418L4.41927 31.562C16.5506 32.9494 27.902 36.8513 38.3003 43.181V39.7994C29.4618 37.6316 22.9629 29.6544 22.9629 20.2032C22.9629 9.01772 31.9747 0 43.0662 0C51.6448 0 58.9236 5.28924 61.8698 12.8329C64.8159 5.28924 72.0947 0 80.5867 0C89.0786 0 96.444 5.28924 99.3902 12.8329C102.336 5.28924 109.615 0 118.107 0ZM57.1905 34.5968L57.5371 34.6835C65.5091 36.5044 73.3079 40.6665 81.0199 47.0829C88.6453 40.6665 96.3574 36.5911 104.243 34.6835C102.163 32.6892 100.517 30.2614 99.3902 27.4867C96.444 34.9437 89.1652 40.3196 80.5867 40.3196C72.0947 40.3196 64.7293 35.0304 61.7831 27.4867C60.8299 30.1747 59.1835 32.6025 57.1905 34.5968Z" fill="#3668AE"/>
<path fillRule="evenodd" clip-rule="evenodd" d="M3.98633 35.4639C16.2043 36.8512 27.7291 40.9265 38.3006 47.8632V68.7601C52.9449 68.7601 63.3432 79.4253 63.3432 93.8189V133.011H51.8184C40.9002 133.011 26.9492 119.832 26.9492 109.08V88.9632C26.9492 78.5582 16.5509 68.6734 3.98633 68.6734V35.4639Z" fill="white"/>
<path fillRule="evenodd" clip-rule="evenodd" d="M157.014 35.4639C145.143 36.7645 133.964 40.6664 123.653 47.2563V68.7601C109.009 68.7601 98.6104 79.4253 98.6104 93.8189V133.011H109.269C120.187 133.011 134.138 119.832 134.138 109.08V88.9632C134.138 78.5582 144.536 68.6734 157.101 68.6734V35.4639H157.014Z" fill="#C3151B"/>
<path fillRule="evenodd" clip-rule="evenodd" d="M43.0665 3.98828C51.9917 3.98828 59.2705 11.2718 59.2705 20.2028C59.2705 29.1339 51.9917 36.3307 43.0665 36.3307C34.1414 36.3307 26.9492 29.1339 26.9492 20.2028C26.9492 11.2718 34.1414 3.98828 43.0665 3.98828Z" fill="white"/>
<path fillRule="evenodd" clip-rule="evenodd" d="M118.108 3.98828C127.033 3.98828 134.225 11.1851 134.225 20.1161C134.225 29.0471 127.033 36.244 118.108 36.244C109.182 36.244 101.99 29.0471 101.99 20.1161C101.99 11.1851 109.182 3.98828 118.108 3.98828Z" fill="#C3151B"/>
</g>
<defs>
<clipPath id="clip0_388_1547">
<rect width="161" height="137" fill="white"/>
</clipPath>
</defs>
</svg>
