<svg width="231" height="40" viewBox="0 0 231 40" fill="none" xmlns="http://www.w3.org/2000/svg">
<g clip-path="url(#clip0_388_1708)">
<path d="M28.1819 26.5164C28.1819 25.0496 27.0958 24.3725 24.9807 24.3725H11.9473V29.2809H25.0379C27.1529 29.2809 28.2391 28.5474 28.2391 27.137V26.5164H28.1819ZM11.9473 10.7195V15.4022H24.1232C26.2383 15.4022 27.3244 14.7252 27.3244 13.3711V12.807C27.3244 11.4529 26.2383 10.7759 24.1232 10.7759H11.9473V10.7195ZM39.1002 23.1878C39.9577 24.5982 40.415 26.2343 40.415 28.0961V28.6603C40.415 31.9889 39.1002 34.5841 36.4135 36.4459C33.784 38.3077 30.0111 39.2104 25.2665 39.2104H0V0.790039H24.1232C28.925 0.790039 32.6978 1.69272 35.2702 3.5545C37.8998 5.41627 39.2146 8.01148 39.2146 11.3401V11.9043C39.2146 15.2893 37.8998 17.8845 35.2131 19.6899C36.928 20.5926 38.1856 21.7773 39.1002 23.1878Z" fill="black"/>
<path d="M58.993 37.5743C55.3345 35.9382 52.4763 33.625 50.4184 30.6349C48.4176 27.6448 47.3887 24.1469 47.3887 20.1977V19.9156C47.3887 15.91 48.4176 12.4685 50.4184 9.47836C52.4191 6.48823 55.2773 4.17512 58.993 2.53901C62.6515 0.902903 66.9388 0.0566406 71.7977 0.0566406C76.3709 0.0566406 80.4867 0.790068 84.1452 2.20051C87.7465 3.66736 90.6047 5.64197 92.6626 8.29359C94.7205 10.8888 95.6923 13.8225 95.6923 17.0947V17.4896H83.5164V17.0947C83.5164 15.2329 82.4302 13.7097 80.3152 12.6377C78.2001 11.5658 75.3419 11.0016 71.7406 11.0016C67.6248 11.0016 64.5379 11.7351 62.5371 13.1455C60.5364 14.6124 59.5646 16.8126 59.5646 19.7463V20.3105C59.5646 23.3006 60.5364 25.4445 62.5371 26.8549C64.5379 28.2654 67.6248 28.9424 71.7977 28.9424C75.5134 28.9424 78.3716 28.4346 80.4295 27.3627C82.4874 26.3472 83.4592 24.8803 83.4592 22.9621V22.5672H95.6351V22.9621C95.6351 26.1779 94.6062 29.1116 92.6054 31.7069C90.5475 34.3021 87.7465 36.2767 84.088 37.7435C80.4867 39.2104 76.3709 39.8874 71.7406 39.8874C66.9388 40.0002 62.6515 39.154 58.993 37.5743Z" fill="black"/>
<path d="M181.725 0.790039V28.6603H194.415V0.790039H206.362V28.6603H219.053V0.790039H231V39.2104H169.777V0.790039H181.725Z" fill="black"/>
<path d="M113.299 19.9718C116.729 20.6488 118.501 22.8491 118.501 26.5162V29.6192C118.501 30.7475 119.187 31.2553 120.559 31.2553H126.962V39.9436H118.73C116.786 39.9436 115.071 39.5487 113.528 38.7588C111.985 37.969 110.784 36.897 109.927 35.4866C109.069 34.0762 108.612 32.5529 108.612 30.8039V25.952C108.612 25.4443 108.44 24.9929 108.04 24.7109C107.64 24.4288 107.183 24.2595 106.497 24.2595H103.01V15.6841H106.497C107.126 15.6841 107.64 15.5148 108.04 15.2327C108.44 14.9506 108.612 14.4993 108.612 13.9915V9.13963C108.612 7.39069 109.069 5.86742 109.927 4.45698C110.784 3.04654 111.985 1.97461 113.528 1.18477C115.071 0.394922 116.786 0 118.73 0H126.962V8.63188H120.559C119.873 8.63188 119.359 8.80113 119.016 9.08321C118.673 9.3653 118.501 9.81664 118.501 10.3244V13.4274C118.501 17.0945 116.729 19.2948 113.299 19.9718Z" fill="#4E93D1"/>
<path d="M162.746 15.6841V24.3159H159.259C158.63 24.3159 158.115 24.4852 157.715 24.7673C157.315 25.0494 157.144 25.5007 157.144 26.0085V30.8604C157.144 32.6093 156.686 34.1326 155.829 35.543C154.971 36.9535 153.771 38.0254 152.227 38.8152C150.684 39.6051 148.969 40 147.026 40H138.794V31.3681H145.196C145.882 31.3681 146.397 31.1989 146.74 30.9168C147.083 30.6347 147.254 30.1834 147.254 29.6756V26.5726C147.254 22.9055 148.969 20.7052 152.456 20.0282C149.026 19.3512 147.254 17.1509 147.254 13.4838V10.3808C147.254 9.25247 146.568 8.74471 145.196 8.74471H138.794V0H147.026C148.969 0 150.684 0.394922 152.227 1.18477C153.771 1.97461 154.971 3.04654 155.829 4.45698C156.686 5.86742 157.144 7.39069 157.144 9.13963V13.9915C157.144 14.4993 157.315 14.9506 157.715 15.2327C158.058 15.5148 158.573 15.6841 159.259 15.6841H162.746Z" fill="#4E93D1"/>
</g>
<defs>
<clipPath id="clip0_388_1708">
<rect width="231" height="40" fill="white"/>
</clipPath>
</defs>
</svg>
