<svg width="23" height="23" viewBox="0 0 23 23" fill="none" xmlns="http://www.w3.org/2000/svg">
<path d="M18.8553 3.68555H3.95004C3.2914 3.68625 2.65994 3.94821 2.19421 4.41394C1.72848 4.87966 1.46652 5.51113 1.46582 6.16976V16.8164C1.46652 17.4751 1.72848 18.1065 2.19421 18.5722C2.65994 19.038 3.2914 19.2999 3.95004 19.3006H18.8553C19.514 19.2999 20.1454 19.038 20.6112 18.5722C21.0769 18.1065 21.3389 17.4751 21.3396 16.8164V6.16976C21.3389 5.51113 21.0769 4.87966 20.6112 4.41394C20.1454 3.94821 19.514 3.68625 18.8553 3.68555ZM18.2263 7.79471L11.8383 12.7631C11.7138 12.86 11.5605 12.9126 11.4027 12.9126C11.2449 12.9126 11.0916 12.86 10.9671 12.7631L4.57908 7.79471C4.50402 7.73803 4.44098 7.667 4.39362 7.58575C4.34626 7.5045 4.31551 7.41464 4.30317 7.3214C4.29084 7.22817 4.29715 7.13341 4.32175 7.04263C4.34636 6.95186 4.38875 6.86688 4.44648 6.79263C4.50421 6.71838 4.57612 6.65635 4.65803 6.61013C4.73994 6.56392 4.83022 6.53444 4.92362 6.52341C5.01702 6.51239 5.11169 6.52004 5.20211 6.54592C5.29253 6.57179 5.3769 6.61538 5.45033 6.67415L11.4027 11.3037L17.3551 6.67415C17.5039 6.56175 17.691 6.51245 17.8759 6.53692C18.0608 6.56138 18.2286 6.65765 18.3431 6.80489C18.4576 6.95214 18.5095 7.13853 18.4877 7.32376C18.4658 7.50898 18.3719 7.67816 18.2263 7.79471Z" fill="white"/>
</svg>
