<svg width="20" height="20" viewBox="0 0 20 20" fill="none" xmlns="http://www.w3.org/2000/svg">
<path fill-rule="evenodd" clip-rule="evenodd" d="M16.6318 2.82901C15.7318 1.92863 14.6627 1.21516 13.4859 0.729643C12.3091 0.244131 11.0479 -0.00382689 9.77491 4.46461e-05C4.43248 4.46461e-05 0.0834348 4.32735 0.081262 9.64719C0.0788986 11.3411 0.52542 13.0055 1.37537 14.4708L0 19.4682L5.13863 18.1267C6.56103 18.8973 8.15329 19.3005 9.771 19.3H9.77491C15.1169 19.3 19.4655 14.9722 19.4681 9.65284C19.4714 8.38418 19.2223 7.12754 18.7353 5.95604C18.2484 4.78455 17.5333 3.72158 16.6318 2.82901ZM9.77491 17.6717H9.77143C8.32931 17.6721 6.9134 17.2862 5.67096 16.554L5.37677 16.3802L2.32748 17.1763L3.14141 14.2174L2.94977 13.9132C2.1434 12.6366 1.71617 11.1572 1.7178 9.64719C1.7178 5.22645 5.33375 1.62963 9.77795 1.62963C11.9099 1.62582 13.956 2.46899 15.4663 3.97368C16.9767 5.47837 17.8274 7.52135 17.8316 9.65327C17.8298 14.0744 14.2156 17.6717 9.77491 17.6717ZM14.1939 11.6666C13.9519 11.5458 12.7599 10.9626 12.5391 10.8822C12.3184 10.8018 12.1554 10.7614 11.9942 11.003C11.833 11.2446 11.3684 11.7852 11.2272 11.9482C11.086 12.1111 10.9447 12.1289 10.7027 12.0081C10.4606 11.8873 9.67974 11.6331 8.75457 10.8118C8.03451 10.1726 7.54868 9.38342 7.40745 9.14224C7.26622 8.90106 7.39224 8.77026 7.51348 8.65032C7.62255 8.54211 7.75553 8.36873 7.87677 8.22793C7.99801 8.08713 8.03842 7.98632 8.11882 7.82553C8.19921 7.66475 8.15923 7.52395 8.09883 7.40358C8.03842 7.2832 7.55389 6.09643 7.35226 5.61364C7.15541 5.14345 6.95594 5.20733 6.80733 5.19994C6.6661 5.19299 6.50314 5.19125 6.34279 5.19125C6.2202 5.19444 6.09959 5.22287 5.98849 5.27476C5.87738 5.32665 5.77817 5.40088 5.69703 5.49283C5.47498 5.73445 4.84922 6.31849 4.84922 7.50396C4.84922 8.68943 5.71833 9.83666 5.83827 9.99744C5.9582 10.1582 7.54607 12.593 9.97568 13.6373C10.4268 13.8305 10.8878 13.9999 11.3567 14.1448C11.9368 14.3282 12.4648 14.3026 12.882 14.2404C13.3474 14.1714 14.316 13.6573 14.5172 13.0941C14.7184 12.5309 14.7189 12.0485 14.6585 11.9482C14.5981 11.8478 14.4364 11.7869 14.1939 11.6666Z" fill="white"/>
</svg>
