<svg width="35" height="34" viewBox="0 0 35 34" fill="none" xmlns="http://www.w3.org/2000/svg">
<path fillRule="evenodd" clip-rule="evenodd" d="M5.92351 0.99051C4.60283 -0.330171 2.46158 -0.33017 1.1409 0.990511C-0.179779 2.31119 -0.179777 4.45244 1.1409 5.77312L12.3656 16.9978L1.1409 28.2224C-0.17978 29.5431 -0.179779 31.6844 1.1409 33.005C2.46158 34.3257 4.60283 34.3257 5.92351 33.005L17.1482 21.7804L28.2424 32.8746C29.563 34.1953 31.7043 34.1953 33.025 32.8746C34.3456 31.5539 34.3456 29.4126 33.025 28.092L21.9308 16.9978L33.025 5.90358C34.3456 4.5829 34.3456 2.44165 33.025 1.12097C31.7043 -0.199707 29.563 -0.199705 28.2423 1.12097L17.1482 12.2152L5.92351 0.99051Z" fill="#6767BB"/>
</svg>
