<svg width="68" height="72" viewBox="0 0 68 72" fill="none" xmlns="http://www.w3.org/2000/svg">
<path d="M63.2787 28.3046C69.4423 31.5486 69.4423 40.3742 63.2788 43.6181L12.6824 70.2478C6.9206 73.2803 3.74997e-07 69.1021 6.87204e-07 62.591L3.24098e-06 9.33169C3.55319e-06 2.82058 6.9206 -1.35758 12.6824 1.67494L63.2787 28.3046Z" fill="white"/>
<path d="M63.2787 28.3046C69.4423 31.5486 69.4423 40.3742 63.2788 43.6181L12.6824 70.2478C6.9206 73.2803 3.74997e-07 69.1021 6.87204e-07 62.591L3.24098e-06 9.33169C3.55319e-06 2.82058 6.9206 -1.35758 12.6824 1.67494L63.2787 28.3046Z" fill="url(#paint0_radial_388_1198)"/>
<defs>
<radialGradient id="paint0_radial_388_1198" cx="0" cy="0" r="1" gradientUnits="userSpaceOnUse" gradientTransform="translate(8.87223 -13.0284) rotate(55.4446) scale(109.22 107.365)">
<stop stopColor="#C8D2FF" stopOpacity="0.15"/>
<stop offset="1" stopColor="white" stopOpacity="0"/>
</radialGradient>
</defs>
</svg>
